<?xml version="1.0" standalone="no"?>
<!DOCTYPE svg PUBLIC "-//W3C//DTD SVG 20010904//EN"
 "http://www.w3.org/TR/2001/REC-SVG-20010904/DTD/svg10.dtd">
<svg version="1.0" xmlns="http://www.w3.org/2000/svg"
 width="1268.000000pt" height="1268.000000pt" viewBox="0 0 1268.000000 1268.000000"
 preserveAspectRatio="xMidYMid meet">
<metadata>
Created by potrace 1.11, written by Peter Selinger 2001-2013
</metadata>
<g transform="translate(0.000000,1268.000000) scale(0.100000,-0.100000)"
fill="#000000" stroke="none">
<path d="M5600 9088 c-349 -176 -639 -323 -643 -328 -9 -8 -12 -1588 -3 -1597
2 -3 49 7 103 22 54 15 148 41 208 58 61 16 155 42 210 57 55 16 246 67 425
116 179 48 330 91 336 96 13 9 18 1899 6 1897 -4 0 -293 -145 -642 -321z"/>
<path d="M6429 9397 c-4 -7 -3 -1890 1 -1897 5 -8 318 -91 490 -129 25 -6 61
-15 80 -21 19 -6 45 -13 56 -16 12 -2 154 -37 315 -78 161 -41 295 -73 299
-71 10 6 5 1574 -5 1583 -6 5 -149 81 -320 167 -170 87 -386 197 -480 245
-323 166 -434 221 -436 217z"/>
<path d="M7851 7745 c0 -332 3 -607 8 -609 4 -3 18 -7 32 -10 41 -9 61 -13
169 -41 58 -15 114 -29 125 -31 11 -2 94 -23 185 -47 91 -24 168 -44 173 -45
4 -1 8 -2 10 -3 1 0 9 -2 18 -4 9 -1 31 -6 48 -10 l31 -7 0 450 0 450 -25 16
c-14 9 -25 14 -25 11 0 -3 -9 4 -20 15 -12 12 -26 18 -33 14 -7 -4 -9 -4 -5 1
5 5 -18 24 -50 43 -31 19 -90 56 -130 83 -40 27 -74 49 -76 49 -6 0 -138 86
-153 99 -7 6 -16 11 -21 11 -5 0 -15 7 -22 15 -7 9 -15 13 -17 11 -3 -2 -13 4
-24 15 -11 11 -24 17 -29 14 -6 -4 -10 -2 -10 3 0 10 -95 72 -111 72 -5 0 -9
3 -9 8 0 4 -9 13 -20 20 -19 12 -19 7 -19 -593z"/>
<path d="M4650 8230 c-74 -50 -142 -93 -150 -98 -32 -16 -195 -126 -202 -136
-4 -6 -8 -7 -8 -3 0 4 -15 -3 -33 -17 -19 -15 -39 -26 -45 -26 -6 0 -12 -4
-14 -8 -1 -4 -39 -30 -83 -57 -44 -27 -82 -50 -84 -51 -5 -4 -5 -914 1 -919 4
-4 149 30 178 42 8 3 22 8 30 9 8 2 65 17 125 34 61 17 120 33 132 36 12 2 33
8 45 13 13 5 25 9 28 9 3 0 25 6 50 13 25 7 49 12 54 10 4 -1 14 4 22 10 8 6
14 9 14 6 0 -4 18 0 39 8 22 7 41 11 44 9 2 -2 4 268 4 601 0 333 -3 605 -6
605 -3 -1 -67 -41 -141 -90z"/>
<path d="M6120 7164 c-52 -13 -174 -42 -270 -64 -96 -23 -229 -54 -295 -70
-66 -16 -169 -41 -230 -55 -60 -14 -170 -40 -242 -57 l-133 -32 -1 -81 c0 -93
0 -1036 1 -1080 l0 -31 648 1 647 0 1 748 c1 682 0 747 -15 746 -9 -1 -59 -12
-111 -25z"/>
<path d="M6428 7167 c-2 -7 -4 -340 -4 -742 l1 -730 622 0 c417 0 624 3 626
10 3 9 1 1182 -2 1195 0 3 -34 11 -73 19 -40 7 -86 17 -103 21 -16 5 -73 19
-125 30 -52 11 -113 25 -135 30 -45 11 -449 100 -480 106 -45 9 -301 66 -312
69 -6 2 -13 -2 -15 -8z"/>
<path d="M7853 6278 l2 -581 380 1 c209 0 388 1 398 1 16 1 17 32 17 497 0
491 0 496 -20 491 -11 -3 -20 0 -20 6 0 6 -3 8 -6 5 -3 -4 -20 -2 -37 3 -38
11 -84 21 -112 24 -11 1 -27 5 -35 9 -8 3 -78 19 -155 36 -77 17 -149 32 -160
35 -11 3 -45 10 -75 16 -30 5 -68 14 -85 19 -16 5 -44 11 -62 14 l-32 4 2
-580z"/>
<path d="M4776 6843 c-3 -4 -14 -7 -24 -8 -21 -2 -121 -24 -142 -32 -8 -3 -24
-7 -35 -8 -11 -2 -69 -15 -130 -30 -248 -59 -311 -74 -335 -78 -73 -14 -80
-18 -81 -51 -3 -136 0 -928 3 -931 4 -4 702 -9 749 -6 14 1 16 58 16 571 0
314 -3 573 -7 575 -4 2 -10 1 -14 -2z"/>
<path d="M8794 6175 c0 -420 2 -475 16 -476 8 0 150 -1 315 -2 l300 0 1 406 1
407 -41 11 c-22 6 -52 13 -66 15 -14 2 -43 7 -65 13 -22 5 -41 8 -44 6 -2 -3
-10 0 -18 7 -7 6 -16 8 -20 5 -3 -4 -11 -3 -17 2 -6 5 -27 11 -46 14 -29 4
-149 31 -245 53 -11 3 -31 7 -45 10 l-26 5 0 -476z"/>
<path d="M3845 6620 c-4 -6 -10 -8 -14 -6 -4 3 -23 1 -42 -3 -18 -5 -153 -36
-299 -70 -145 -34 -266 -64 -268 -66 -3 -2 -6 -178 -7 -390 l-3 -385 334 0
c311 0 334 1 335 18 3 65 4 889 1 900 -5 15 -28 16 -37 2z"/>
<path d="M4 5801 c-2 -2 -4 -31 -4 -63 0 -53 2 -58 23 -59 28 0 2822 0 2860 0
28 1 28 1 25 63 l-3 62 -1448 0 c-797 1 -1451 -1 -1453 -3z"/>
<path d="M9779 5802 c-11 -2 -14 -17 -12 -58 1 -31 4 -58 7 -61 4 -4 2642 -7
2869 -4 l38 1 -3 62 -3 62 -1441 0 c-792 1 -1447 0 -1455 -2z"/>
<path d="M3489 5068 c-1 -101 0 -492 1 -625 l0 -33 294 0 293 0 2 65 1 65
-217 0 -218 0 1 103 c1 56 2 105 3 108 0 4 84 6 186 6 102 0 187 2 189 4 4 4
9 78 7 112 -1 16 -17 17 -190 17 -142 0 -190 3 -193 13 -2 6 -4 44 -4 82 l1
70 205 1 205 1 5 44 c3 24 3 54 1 67 l-3 22 -284 0 -284 0 -1 -122z"/>
<path d="M4340 4800 l0 -390 75 0 76 0 -2 390 -1 390 -74 0 -74 0 0 -390z"/>
<path d="M5200 5113 c-1 -87 -1 -441 0 -600 l0 -103 79 0 80 0 -1 118 c0 64 0
138 1 164 l1 48 56 -4 c72 -5 87 -20 201 -192 l88 -134 93 0 c50 0 92 3 92 6
0 22 -168 269 -206 303 l-45 40 28 7 c101 24 163 100 163 199 0 71 -19 121
-61 162 -58 56 -94 63 -346 63 l-223 0 0 -77z m440 -78 c42 -43 36 -116 -13
-146 -27 -16 -51 -19 -149 -19 -65 0 -118 3 -119 8 0 4 -1 46 -2 93 l-2 87
132 -2 c119 -1 135 -3 153 -21z"/>
<path d="M8957 5183 c-2 -5 -4 -63 -3 -131 1 -88 -2 -122 -11 -122 -6 0 -15 5
-18 10 -13 22 -91 50 -136 50 -91 0 -167 -51 -207 -140 -20 -45 -24 -71 -25
-145 0 -140 31 -211 122 -275 68 -47 202 -32 260 31 l21 23 1 -25 c1 -13 1
-30 0 -36 -1 -9 18 -13 69 -13 l70 0 0 390 0 390 -69 0 c-39 0 -72 -3 -74 -7z
m-52 -333 c75 -70 59 -282 -25 -325 -101 -52 -183 42 -173 198 4 79 35 134 83
149 32 11 93 -1 115 -22z"/>
<path d="M6275 4983 c-183 -44 -267 -265 -172 -450 74 -141 311 -177 438 -64
69 60 94 118 95 224 1 69 -3 97 -18 130 -30 63 -94 124 -156 147 -50 19 -137
25 -187 13z m164 -142 c37 -41 50 -89 45 -164 -5 -82 -6 -87 -16 -87 -4 0 -8
-5 -8 -10 0 -14 -30 -44 -57 -59 -81 -42 -182 34 -184 139 -2 110 7 145 53
186 30 28 44 32 96 29 34 -2 49 -10 71 -34z"/>
<path d="M7962 4977 c-51 -16 -122 -92 -122 -131 0 -8 18 -18 44 -25 53 -13
86 -14 86 -3 0 5 9 19 20 32 15 17 31 23 76 25 63 2 91 -14 98 -57 5 -31 8
-29 -153 -68 -143 -34 -191 -79 -191 -177 0 -65 18 -103 66 -140 33 -24 45
-28 114 -28 69 0 82 3 129 32 l52 33 6 -30 6 -30 74 0 c73 0 74 1 67 23 -19
58 -23 102 -23 257 1 217 -12 250 -110 285 -50 17 -188 19 -239 2z m204 -335
c-2 -15 -4 -36 -5 -48 0 -12 -9 -30 -19 -40 -46 -50 -109 -58 -147 -19 -43 42
-27 97 33 111 15 4 50 12 77 19 28 7 53 11 57 9 4 -3 5 -17 4 -32z"/>
<path d="M6820 4968 c0 -7 16 -62 36 -123 19 -60 37 -117 39 -125 4 -17 43
-142 75 -242 l22 -68 72 0 73 0 16 63 c8 34 27 106 41 161 14 54 26 100 26
102 0 2 4 4 8 4 11 0 24 -41 64 -197 l33 -133 73 0 c49 0 74 4 77 13 12 39
130 412 146 467 12 36 22 71 24 78 3 9 -15 12 -69 12 l-73 0 -42 -147 c-47
-165 -59 -198 -68 -189 -3 3 -25 79 -47 168 l-42 163 -71 3 -71 3 -10 -33 c-6
-18 -25 -89 -42 -158 -39 -158 -38 -156 -51 -143 -9 9 -30 75 -44 136 -5 21
-5 23 -35 125 l-21 72 -69 0 c-49 0 -70 -4 -70 -12z"/>
<path d="M3575 3995 c-5 -2 -22 -6 -37 -9 -40 -9 -98 -64 -120 -113 -26 -59
-30 -157 -9 -216 18 -52 57 -99 105 -124 45 -25 141 -23 191 3 41 21 89 79 79
95 -3 5 0 9 5 9 26 0 7 17 -34 33 -25 9 -43 12 -40 8 2 -5 -2 -14 -11 -21 -8
-7 -13 -19 -10 -27 3 -8 2 -12 -2 -9 -5 3 -16 -4 -25 -15 -21 -24 -92 -26
-124 -4 -53 37 -73 167 -40 247 36 86 162 94 199 12 11 -24 28 -33 28 -13 0 5
4 8 10 4 5 -3 20 -3 34 1 22 5 24 8 13 32 -15 36 -46 71 -79 88 -26 14 -114
27 -133 19z"/>
<path d="M7820 3951 c0 -40 0 -40 39 -39 41 0 52 11 46 44 -2 11 -4 22 -4 27
-1 4 -19 7 -41 7 -40 0 -40 0 -40 -39z"/>
<path d="M5375 3952 c-40 -23 -46 -32 -41 -64 4 -27 -6 -34 -36 -29 -5 0 -8
-15 -8 -35 0 -32 3 -36 23 -32 22 4 22 3 21 -106 -1 -175 11 -190 137 -178 14
2 17 17 10 54 0 4 -13 8 -28 10 l-28 3 -3 108 c-3 113 -2 114 44 108 12 -1 23
37 16 57 -2 7 -17 12 -33 12 -29 0 -29 1 -29 55 0 30 -3 55 -7 55 -5 0 -21 -8
-38 -18z"/>
<path d="M7428 3948 c-32 -19 -37 -26 -34 -55 2 -31 -6 -39 -36 -34 -4 0 -7
-15 -6 -34 1 -28 5 -35 22 -35 20 0 21 -5 20 -107 -1 -107 10 -168 27 -157 5
3 9 1 9 -4 0 -15 47 -24 84 -17 28 6 33 11 33 36 0 26 -4 29 -33 29 l-32 0 -1
110 c-2 116 -2 117 45 111 7 -1 14 15 16 35 4 35 4 36 -29 32 l-33 -4 0 58 c0
32 -3 58 -7 58 -5 0 -25 -10 -45 -22z"/>
<path d="M4192 3857 c-37 -14 -95 -65 -87 -77 3 -5 0 -10 -6 -12 -6 -2 -13
-33 -15 -68 -7 -111 49 -185 147 -195 160 -16 255 169 154 301 -15 19 -31 32
-36 29 -5 -4 -9 -2 -9 2 0 12 -60 33 -91 32 -13 0 -39 -6 -57 -12z m116 -81
c46 -45 38 -168 -11 -195 -12 -6 -31 -12 -42 -12 -39 1 -54 4 -50 12 3 4 -2 9
-10 13 -8 3 -15 12 -15 21 0 8 -3 15 -7 15 -6 0 -9 95 -4 108 1 1 2 5 3 10 1
4 14 18 28 32 31 32 74 30 108 -4z"/>
<path d="M4855 3856 c-17 -7 -37 -21 -45 -31 -14 -17 -15 -16 -20 6 -5 20 -13
24 -43 25 -42 1 -38 13 -38 -131 0 -36 0 -99 0 -140 l1 -74 43 1 43 0 0 120
c-1 108 1 121 21 144 21 25 73 41 73 23 0 -5 6 -9 14 -9 19 0 26 -45 26 -171
l0 -108 43 1 44 0 -2 142 c-2 158 -8 180 -60 202 -42 17 -61 17 -100 0z"/>
<path d="M5890 3863 c-8 -4 -21 -15 -28 -25 -13 -18 -38 -16 -27 2 6 11 -29
21 -60 18 -19 -2 -20 -9 -20 -175 l0 -173 37 0 c20 0 40 5 43 11 4 6 8 57 9
113 2 85 6 108 22 128 15 20 24 23 47 17 25 -7 29 -4 43 29 14 34 14 38 -2 49
-19 14 -39 15 -64 6z"/>
<path d="M6315 3860 c-3 -5 -11 -7 -18 -4 -17 6 -69 -34 -62 -47 4 -5 2 -9 -3
-9 -6 0 -12 -6 -15 -14 -4 -9 0 -14 11 -14 9 1 27 -2 39 -6 16 -5 25 -1 37 15
28 40 114 22 112 -23 -1 -20 -11 -26 -77 -43 -41 -11 -85 -27 -97 -36 -47 -34
-47 -102 -1 -147 23 -22 37 -28 67 -26 53 3 70 8 93 27 24 21 26 21 32 -3 4
-16 14 -20 47 -20 30 0 39 3 34 12 -5 7 -9 66 -10 131 -2 126 -8 162 -27 181
-30 30 -148 49 -162 26z m101 -227 c-2 -20 -12 -42 -22 -50 -24 -17 -72 -17
-90 2 -33 33 14 77 87 82 28 2 29 1 25 -34z"/>
<path d="M6894 3853 c-13 -6 -24 -9 -24 -6 0 3 -10 -2 -21 -13 -53 -47 -74
-163 -42 -226 7 -16 10 -28 7 -28 -18 0 35 -45 72 -61 51 -23 125 -17 163 12
21 16 65 89 58 95 -1 1 -20 4 -42 6 -36 4 -41 1 -55 -26 -9 -18 -26 -33 -44
-37 -24 -7 -33 -3 -57 21 -16 16 -29 39 -30 52 -1 13 -2 32 -3 43 -2 34 15 89
33 102 28 21 77 16 98 -11 15 -19 26 -23 53 -20 43 5 44 7 26 43 -18 34 -60
66 -75 57 -5 -4 -13 -2 -16 4 -8 13 -71 9 -101 -7z"/>
<path d="M8354 3851 c-18 -11 -35 -25 -40 -33 -6 -9 -10 -6 -14 12 -5 20 -13
25 -43 27 -34 3 -37 1 -38 -24 -1 -41 -1 -296 0 -311 1 -8 16 -12 44 -11 l43
2 1 96 c1 53 1 108 2 123 1 33 38 73 68 73 24 -1 64 -32 62 -49 -1 -6 -1 -63
0 -127 l1 -117 43 1 44 0 -2 131 c-3 176 -7 189 -61 212 -45 19 -73 18 -110
-5z"/>
<path d="M8908 3863 c-10 -3 -18 -9 -18 -14 0 -5 -6 -9 -14 -9 -8 0 -25 -17
-38 -37 -36 -59 -33 -223 4 -223 5 0 6 -4 3 -10 -3 -5 13 -21 36 -36 48 -30
95 -28 140 5 l27 20 4 -40 c5 -51 -14 -75 -64 -82 -30 -4 -40 0 -57 19 -12 13
-31 24 -43 24 -13 0 -33 3 -45 6 -19 5 -23 2 -23 -15 0 -11 4 -21 10 -21 5 0
7 -6 5 -12 -8 -20 58 -58 111 -64 27 -4 69 -1 93 6 43 11 95 55 86 71 -3 4 -1
10 3 13 5 3 9 92 10 199 l0 193 -34 2 c-27 2 -36 -2 -42 -18 l-8 -21 -27 21
c-27 21 -83 32 -119 23z m130 -103 c15 -24 18 -50 13 -117 -2 -25 -47 -64 -76
-66 -48 -4 -69 26 -79 109 -3 31 1 50 19 80 14 21 25 36 25 32 0 -4 10 -4 23
1 28 11 53 -2 75 -39z"/>
<path d="M7820 3686 l0 -175 39 1 c22 0 41 5 43 12 3 6 4 83 4 171 l-1 160
-42 2 -43 3 0 -174z"/>
</g>
</svg>
